<?xml version="1.0" standalone="no"?>
<!DOCTYPE svg PUBLIC "-//W3C//DTD SVG 20010904//EN"
 "http://www.w3.org/TR/2001/REC-SVG-20010904/DTD/svg10.dtd">
<svg version="1.0" xmlns="http://www.w3.org/2000/svg"
 width="1280.000000pt" height="1016.000000pt" viewBox="0 0 1280.000000 1016.000000"
 preserveAspectRatio="xMidYMid meet">
<metadata>
Created by potrace 1.15, written by Peter Selinger 2001-2017
</metadata>
<g transform="translate(0.000000,1016.000000) scale(0.100000,-0.100000)"
fill="#000000" stroke="none">
<path d="M2000 10130 c-272 -138 -376 -509 -260 -922 100 -359 352 -701 676
-920 51 -35 93 -67 94 -71 0 -4 -16 -15 -36 -23 -46 -19 -81 -14 -242 37 -180
57 -230 51 -252 -31 -22 -83 34 -151 200 -246 47 -26 117 -66 155 -88 80 -45
177 -133 195 -176 11 -26 8 -35 -39 -112 -110 -184 -195 -406 -232 -614 -18
-96 -22 -160 -23 -329 -1 -213 6 -286 46 -508 25 -137 22 -178 -37 -447 -19
-85 -52 -237 -74 -337 -57 -261 -73 -376 -72 -543 0 -182 20 -289 79 -435 l20
-51 -52 -27 c-29 -15 -82 -52 -117 -82 -151 -125 -238 -286 -358 -665 -34
-107 -71 -223 -83 -258 -11 -34 -85 -196 -164 -360 -277 -569 -328 -656 -513
-877 -352 -419 -352 -419 -609 -630 -213 -174 -287 -269 -299 -389 -5 -49 -2
-64 26 -121 34 -68 72 -106 151 -149 162 -88 457 -89 629 -2 132 67 176 145
222 390 48 255 75 323 191 477 114 151 228 243 624 503 318 208 408 289 508
454 36 60 86 128 110 150 49 45 86 55 86 23 0 -11 12 -57 26 -103 75 -239 219
-373 446 -414 144 -27 373 -7 585 50 l53 14 11 -41 c16 -59 14 -171 -5 -247
-23 -94 -104 -250 -188 -362 -121 -161 -375 -446 -442 -495 -83 -61 -223 -127
-456 -213 -307 -114 -427 -186 -484 -290 -58 -107 -33 -243 63 -339 78 -78
238 -147 395 -171 160 -24 376 -11 450 27 58 30 139 119 226 248 126 186 182
238 485 450 122 86 325 235 750 550 61 45 164 128 230 184 82 69 148 116 209
146 48 25 94 45 101 45 7 0 94 -40 193 -89 305 -150 470 -198 714 -208 179 -7
341 8 558 51 88 18 163 30 165 27 10 -9 5 -42 -10 -71 -8 -16 -59 -64 -112
-107 -54 -43 -108 -94 -120 -112 -60 -89 -4 -189 173 -306 168 -111 208 -124
508 -165 282 -40 357 -65 423 -140 27 -31 45 -98 37 -140 -16 -79 -96 -119
-374 -190 -275 -70 -345 -109 -338 -189 l3 -36 174 -42 c202 -49 335 -73 401
-73 26 0 99 9 161 20 63 10 186 28 274 40 303 40 485 85 600 150 113 64 195
181 195 280 0 102 -60 176 -280 344 -247 188 -305 260 -305 376 1 109 57 175
220 256 141 70 221 81 461 68 l111 -7 23 -46 c33 -68 101 -160 157 -213 176
-163 355 -128 505 99 l34 52 117 -87 c142 -107 194 -135 270 -140 56 -4 58 -4
101 39 27 28 51 66 64 101 26 69 49 237 58 410 l6 127 35 7 c61 11 214 -3 280
-26 35 -12 145 -69 245 -127 271 -157 465 -244 717 -325 146 -46 171 -73 287
-300 107 -211 161 -273 292 -334 69 -33 84 -44 96 -74 16 -40 31 -132 46 -275
12 -112 24 -164 50 -215 35 -67 55 -78 180 -95 135 -17 247 -19 287 -4 74 28
121 123 110 225 -6 62 -50 157 -107 234 -22 30 -102 124 -178 209 -75 84 -162
186 -193 227 -51 68 -57 81 -68 157 -8 45 -31 154 -53 242 -111 448 -262 682
-541 840 l-106 60 -189 285 c-104 157 -238 349 -298 428 -60 79 -137 195 -171
258 -148 275 -265 393 -628 634 -113 75 -196 139 -247 190 -43 43 -78 82 -78
87 0 5 39 38 87 73 239 177 526 441 646 593 360 458 216 745 -458 911 -152 37
-347 71 -704 122 -178 25 -334 50 -346 54 -17 6 -26 24 -39 74 -47 189 5 296
190 386 46 23 230 90 407 149 326 109 494 173 668 254 l96 45 11 88 c18 134
20 181 11 280 -14 162 -62 270 -201 455 -121 161 -142 208 -135 309 2 45 13
94 26 123 l21 49 -42 -7 c-227 -34 -341 -76 -419 -154 -93 -93 -100 -179 -38
-421 40 -156 44 -256 12 -315 -53 -100 -199 -231 -443 -399 -203 -140 -311
-219 -374 -274 -133 -117 -231 -266 -256 -389 -54 -258 107 -432 504 -547 115
-34 330 -76 641 -126 285 -46 445 -80 539 -113 340 -124 242 -332 -339 -722
-171 -115 -434 -275 -452 -275 -6 0 -139 57 -295 126 -763 339 -1111 444
-1568 474 -138 10 -159 13 -190 35 -65 45 -194 156 -398 342 -278 255 -370
333 -488 413 -138 94 -277 162 -439 215 -111 36 -151 55 -220 102 -226 156
-404 350 -512 559 -55 105 -79 167 -111 288 -24 93 -26 117 -26 296 0 187 1
200 31 312 17 64 42 138 55 165 46 91 132 128 397 168 172 27 251 49 301 85
59 42 82 129 45 170 -10 11 -59 42 -108 68 -97 51 -131 83 -147 140 -24 86 2
168 68 221 20 16 124 73 230 126 158 80 205 109 260 160 119 111 158 212 149
394 -6 148 -51 306 -143 506 -29 63 -162 315 -173 327 -3 4 -4 -100 -3 -230 7
-423 -35 -658 -145 -824 -94 -143 -192 -186 -503 -222 -137 -16 -235 -39 -301
-71 l-37 -18 -108 68 c-275 173 -445 209 -699 150 -171 -40 -260 -42 -380 -12
-229 59 -521 94 -692 83 -228 -15 -347 -53 -529 -171 -45 -29 -90 -56 -101
-59 -15 -5 -83 26 -231 103 -253 131 -285 152 -383 251 -130 131 -182 271
-182 490 0 136 19 270 59 423 15 54 25 100 23 102 -2 1 -29 -10 -59 -25z"/>
</g>
</svg>
